<svg  fill="rgb(255, 255, 255)" stroke="rgb(55, 28, 125" fill-rule="evenodd" clip-rule="evenodd" stroke-linejoin="round" stroke-miterlimit="1.414" xmlns="http://www.w3.org/2000/svg" viewBox="0 0 32 32" preserveAspectRatio="xMidYMid meet" role="img" class="InlineSvg-gigSlh hwPeQh"><g id="cc-logo"><circle id="background_circle" stroke-miterlimit="10" cx="15.9" cy="15.9" r="15.2"></circle><g id="me"><path id="hair" stroke-miterlimit="10" d="M26.5,26.5V12.8c0-5.5-4.5-9.9-9.9-9.9 s-9.9,4.5-9.9,9.9v13.5c0,0.7-0.1,1.2,0,1.6"></path><path id="sleeve_left" stroke-miterlimit="10" d="M13.4,26.7L13.4,26.7c0.1-1.4-0.8-2.7-2.1-3 c-1.3-0.3-2.7,0.5-3.2,1.7l-1,2.9c0,0,1.9,1.1,2.2,1.1"></path><path id="shirt" stroke-miterlimit="10" d="M25.4,27.9c-1.3-3.3-4.4-5.5-8-5.5 c-4.2,0-7.7,2.9-8.4,7.1c0,0,5.8,3.2,11.4,0.9"></path><path id="sleeve_right" stroke-miterlimit="10" d="M26.2,26.9c-0.2-1.3-1.3-2.4-2.8-2.4 c-1.4,0-2.7,1.1-2.8,2.5v0.1l-0.4,3.3C20.3,30.3,25.1,28.4,26.2,26.9"></path><path id="neck_shadow" display="none" stroke-miterlimit="10" d="M20,23.6 c0.1,1.1-1.3,2.1-3.2,2.3c-1.8,0.2-3.3-0.7-3.4-1.8c-0.1-1.1,1.4-1.1,3.3-1.3C18.5,22.6,19.9,22.5,20,23.6z"></path><ellipse id="neck_1" stroke-miterlimit="10" cx="16.7" cy="22.5" rx="2.4" ry="1.6"></ellipse><path id="face_1" stroke-miterlimit="10" d="M15.8,22.7L15.8,22.7c-3.9,0-7.1-3.3-7.1-7.1v-3.9 c0-3.9,3.3-7.1,7.1-7.1l0,0c3.9,0,7.1,3.3,7.1,7.1v3.9C22.9,19.5,19.6,22.7,15.8,22.7z"></path><path id="bangs" stroke-miterlimit="10" d="M22.6,11.1c0,0.4-0.1,0.4-0.5,0.4c-1.8,0-3.7,0-5.5,0 c-1.2,0-2.6,0-3.8,0c-1.3,0-2.7,0-4.1,0c-0.1,0-0.2,0-0.3-0.1c-0.1-0.1-0.1-0.2-0.1-0.4c0-3.4,3.2-6,6.6-6.4 c2-0.2,4.2,0.4,5.7,1.6C21.9,7.4,22.8,9.2,22.6,11.1z"></path><ellipse id="eye_right" stroke-miterlimit="10" cx="18.3" cy="14.3" rx="0.4" ry="0.9"></ellipse><ellipse id="eye_left" stroke-miterlimit="10" cx="11.2" cy="14.3" rx="0.4" ry="0.9"></ellipse></g><g id="bow"><path stroke-miterlimit="10" d="M14.6,4.3l-1.7,0.6c-0.5-0.1-0.9-0.6-0.8-1.1l0.3-1.4 c0.1-0.5,0.6-0.9,1.1-0.8l1.3,1.2c0.5,0.1,0.9,0.6,0.8,1.1l0.1-0.3C15.6,4.1,15.1,4.5,14.6,4.3z"></path><path stroke-miterlimit="10" d="M16.1,4.7l1.3,1.2c0.5,0.1,1.1-0.2,1.1-0.8l0.3-1.4 c0.1-0.5-0.3-1-0.8-1.1l-1.7,0.7c-0.5-0.1-1.1,0.2-1.1,0.8l0.1-0.5C15.2,4,15.5,4.6,16.1,4.7z"></path><path stroke-miterlimit="10" d="M15.5,4.8L15,4.7c-0.4-0.1-0.6-0.4-0.5-0.8l0.1-0.7 c0.1-0.4,0.4-0.6,0.8-0.5l0.5,0.1c0.4,0.1,0.6,0.4,0.5,0.8l-0.1,0.7C16.2,4.7,15.8,4.9,15.5,4.8z"></path></g></g></svg>