<?xml version="1.0" standalone="no"?>
<svg xmlns:xlink="http://www.w3.org/1999/xlink" id="wave" style="transform:rotate(180deg); transition: 0.3s" viewBox="0 0 1440 490" version="1.1" xmlns="http://www.w3.org/2000/svg"><defs><linearGradient id="sw-gradient-0" x1="0" x2="0" y1="1" y2="0"><stop stop-color="rgba(255, 255, 255, 1)" offset="0%"/><stop stop-color="rgba(212.596, 235.031, 255, 1)" offset="100%"/></linearGradient></defs><path style="transform:translate(0, 0px); opacity:1" fill="url(#sw-gradient-0)" d="M0,441L80,392C160,343,320,245,480,212.3C640,180,800,212,960,261.3C1120,310,1280,376,1440,383.8C1600,392,1760,343,1920,318.5C2080,294,2240,294,2400,310.3C2560,327,2720,359,2880,383.8C3040,408,3200,425,3360,375.7C3520,327,3680,212,3840,187.8C4000,163,4160,229,4320,245C4480,261,4640,229,4800,236.8C4960,245,5120,294,5280,269.5C5440,245,5600,147,5760,163.3C5920,180,6080,310,6240,310.3C6400,310,6560,180,6720,138.8C6880,98,7040,147,7200,155.2C7360,163,7520,131,7680,98C7840,65,8000,33,8160,89.8C8320,147,8480,294,8640,367.5C8800,441,8960,441,9120,392C9280,343,9440,245,9600,196C9760,147,9920,147,10080,138.8C10240,131,10400,114,10560,114.3C10720,114,10880,131,11040,130.7C11200,131,11360,114,11440,106.2L11520,98L11520,490L11440,490C11360,490,11200,490,11040,490C10880,490,10720,490,10560,490C10400,490,10240,490,10080,490C9920,490,9760,490,9600,490C9440,490,9280,490,9120,490C8960,490,8800,490,8640,490C8480,490,8320,490,8160,490C8000,490,7840,490,7680,490C7520,490,7360,490,7200,490C7040,490,6880,490,6720,490C6560,490,6400,490,6240,490C6080,490,5920,490,5760,490C5600,490,5440,490,5280,490C5120,490,4960,490,4800,490C4640,490,4480,490,4320,490C4160,490,4000,490,3840,490C3680,490,3520,490,3360,490C3200,490,3040,490,2880,490C2720,490,2560,490,2400,490C2240,490,2080,490,1920,490C1760,490,1600,490,1440,490C1280,490,1120,490,960,490C800,490,640,490,480,490C320,490,160,490,80,490L0,490Z"/><defs><linearGradient id="sw-gradient-1" x1="0" x2="0" y1="1" y2="0"><stop stop-color="rgba(247.386, 218.355, 255, 1)" offset="0%"/><stop stop-color="rgba(255, 255, 255, 1)" offset="100%"/></linearGradient></defs><path style="transform:translate(0, 50px); opacity:0.9" fill="url(#sw-gradient-1)" d="M0,196L80,236.8C160,278,320,359,480,375.7C640,392,800,343,960,294C1120,245,1280,196,1440,204.2C1600,212,1760,278,1920,253.2C2080,229,2240,114,2400,98C2560,82,2720,163,2880,163.3C3040,163,3200,82,3360,89.8C3520,98,3680,196,3840,220.5C4000,245,4160,196,4320,212.3C4480,229,4640,310,4800,351.2C4960,392,5120,392,5280,383.8C5440,376,5600,359,5760,343C5920,327,6080,310,6240,285.8C6400,261,6560,229,6720,245C6880,261,7040,327,7200,310.3C7360,294,7520,196,7680,163.3C7840,131,8000,163,8160,204.2C8320,245,8480,294,8640,277.7C8800,261,8960,180,9120,147C9280,114,9440,131,9600,179.7C9760,229,9920,310,10080,285.8C10240,261,10400,131,10560,73.5C10720,16,10880,33,11040,81.7C11200,131,11360,212,11440,253.2L11520,294L11520,490L11440,490C11360,490,11200,490,11040,490C10880,490,10720,490,10560,490C10400,490,10240,490,10080,490C9920,490,9760,490,9600,490C9440,490,9280,490,9120,490C8960,490,8800,490,8640,490C8480,490,8320,490,8160,490C8000,490,7840,490,7680,490C7520,490,7360,490,7200,490C7040,490,6880,490,6720,490C6560,490,6400,490,6240,490C6080,490,5920,490,5760,490C5600,490,5440,490,5280,490C5120,490,4960,490,4800,490C4640,490,4480,490,4320,490C4160,490,4000,490,3840,490C3680,490,3520,490,3360,490C3200,490,3040,490,2880,490C2720,490,2560,490,2400,490C2240,490,2080,490,1920,490C1760,490,1600,490,1440,490C1280,490,1120,490,960,490C800,490,640,490,480,490C320,490,160,490,80,490L0,490Z"/><defs><linearGradient id="sw-gradient-2" x1="0" x2="0" y1="1" y2="0"><stop stop-color="rgba(255, 0, 143.843, 1)" offset="0%"/><stop stop-color="rgba(106.981, 0, 255, 1)" offset="100%"/></linearGradient></defs><path style="transform:translate(0, 100px); opacity:0.8" fill="url(#sw-gradient-2)" d="M0,0L80,0C160,0,320,0,480,16.3C640,33,800,65,960,65.3C1120,65,1280,33,1440,40.8C1600,49,1760,98,1920,98C2080,98,2240,49,2400,73.5C2560,98,2720,196,2880,220.5C3040,245,3200,196,3360,196C3520,196,3680,245,3840,269.5C4000,294,4160,294,4320,310.3C4480,327,4640,359,4800,334.8C4960,310,5120,229,5280,179.7C5440,131,5600,114,5760,163.3C5920,212,6080,327,6240,383.8C6400,441,6560,441,6720,383.8C6880,327,7040,212,7200,155.2C7360,98,7520,98,7680,114.3C7840,131,8000,163,8160,220.5C8320,278,8480,359,8640,375.7C8800,392,8960,343,9120,269.5C9280,196,9440,98,9600,89.8C9760,82,9920,163,10080,236.8C10240,310,10400,376,10560,392C10720,408,10880,376,11040,326.7C11200,278,11360,212,11440,179.7L11520,147L11520,490L11440,490C11360,490,11200,490,11040,490C10880,490,10720,490,10560,490C10400,490,10240,490,10080,490C9920,490,9760,490,9600,490C9440,490,9280,490,9120,490C8960,490,8800,490,8640,490C8480,490,8320,490,8160,490C8000,490,7840,490,7680,490C7520,490,7360,490,7200,490C7040,490,6880,490,6720,490C6560,490,6400,490,6240,490C6080,490,5920,490,5760,490C5600,490,5440,490,5280,490C5120,490,4960,490,4800,490C4640,490,4480,490,4320,490C4160,490,4000,490,3840,490C3680,490,3520,490,3360,490C3200,490,3040,490,2880,490C2720,490,2560,490,2400,490C2240,490,2080,490,1920,490C1760,490,1600,490,1440,490C1280,490,1120,490,960,490C800,490,640,490,480,490C320,490,160,490,80,490L0,490Z"/></svg>