<?xml version="1.0" standalone="no"?>
<svg xmlns:xlink="http://www.w3.org/1999/xlink" id="wave" style="transform:rotate(180deg); transition: 0.3s" viewBox="0 0 1440 490" version="1.1" xmlns="http://www.w3.org/2000/svg"><defs><linearGradient id="sw-gradient-0" x1="0" x2="0" y1="1" y2="0"><stop stop-color="rgba(255, 255, 255, 1)" offset="0%"/><stop stop-color="rgba(212.596, 235.031, 255, 1)" offset="100%"/></linearGradient></defs><path style="transform:translate(0, 0px); opacity:1" fill="url(#sw-gradient-0)" d="M0,294L80,253.2C160,212,320,131,480,155.2C640,180,800,310,960,302.2C1120,294,1280,147,1440,81.7C1600,16,1760,33,1920,89.8C2080,147,2240,245,2400,253.2C2560,261,2720,180,2880,163.3C3040,147,3200,196,3360,179.7C3520,163,3680,82,3840,106.2C4000,131,4160,261,4320,334.8C4480,408,4640,425,4800,408.3C4960,392,5120,343,5280,269.5C5440,196,5600,98,5760,89.8C5920,82,6080,163,6240,236.8C6400,310,6560,376,6720,375.7C6880,376,7040,310,7200,310.3C7360,310,7520,376,7680,359.3C7840,343,8000,245,8160,212.3C8320,180,8480,212,8640,187.8C8800,163,8960,82,9120,49C9280,16,9440,33,9600,81.7C9760,131,9920,212,10080,277.7C10240,343,10400,392,10560,375.7C10720,359,10880,278,11040,220.5C11200,163,11360,131,11440,114.3L11520,98L11520,490L11440,490C11360,490,11200,490,11040,490C10880,490,10720,490,10560,490C10400,490,10240,490,10080,490C9920,490,9760,490,9600,490C9440,490,9280,490,9120,490C8960,490,8800,490,8640,490C8480,490,8320,490,8160,490C8000,490,7840,490,7680,490C7520,490,7360,490,7200,490C7040,490,6880,490,6720,490C6560,490,6400,490,6240,490C6080,490,5920,490,5760,490C5600,490,5440,490,5280,490C5120,490,4960,490,4800,490C4640,490,4480,490,4320,490C4160,490,4000,490,3840,490C3680,490,3520,490,3360,490C3200,490,3040,490,2880,490C2720,490,2560,490,2400,490C2240,490,2080,490,1920,490C1760,490,1600,490,1440,490C1280,490,1120,490,960,490C800,490,640,490,480,490C320,490,160,490,80,490L0,490Z"/><defs><linearGradient id="sw-gradient-1" x1="0" x2="0" y1="1" y2="0"><stop stop-color="rgba(255, 255, 255, 1)" offset="0%"/><stop stop-color="rgba(247.386, 218.355, 255, 1)" offset="100%"/></linearGradient></defs><path style="transform:translate(0, 50px); opacity:0.9" fill="url(#sw-gradient-1)" d="M0,147L80,130.7C160,114,320,82,480,122.5C640,163,800,278,960,294C1120,310,1280,229,1440,204.2C1600,180,1760,212,1920,196C2080,180,2240,114,2400,81.7C2560,49,2720,49,2880,89.8C3040,131,3200,212,3360,236.8C3520,261,3680,229,3840,245C4000,261,4160,327,4320,367.5C4480,408,4640,425,4800,359.3C4960,294,5120,147,5280,73.5C5440,0,5600,0,5760,0C5920,0,6080,0,6240,8.2C6400,16,6560,33,6720,40.8C6880,49,7040,49,7200,40.8C7360,33,7520,16,7680,65.3C7840,114,8000,229,8160,228.7C8320,229,8480,114,8640,65.3C8800,16,8960,33,9120,40.8C9280,49,9440,49,9600,57.2C9760,65,9920,82,10080,122.5C10240,163,10400,229,10560,212.3C10720,196,10880,98,11040,122.5C11200,147,11360,294,11440,367.5L11520,441L11520,490L11440,490C11360,490,11200,490,11040,490C10880,490,10720,490,10560,490C10400,490,10240,490,10080,490C9920,490,9760,490,9600,490C9440,490,9280,490,9120,490C8960,490,8800,490,8640,490C8480,490,8320,490,8160,490C8000,490,7840,490,7680,490C7520,490,7360,490,7200,490C7040,490,6880,490,6720,490C6560,490,6400,490,6240,490C6080,490,5920,490,5760,490C5600,490,5440,490,5280,490C5120,490,4960,490,4800,490C4640,490,4480,490,4320,490C4160,490,4000,490,3840,490C3680,490,3520,490,3360,490C3200,490,3040,490,2880,490C2720,490,2560,490,2400,490C2240,490,2080,490,1920,490C1760,490,1600,490,1440,490C1280,490,1120,490,960,490C800,490,640,490,480,490C320,490,160,490,80,490L0,490Z"/><defs><linearGradient id="sw-gradient-2" x1="0" x2="0" y1="1" y2="0"><stop stop-color="rgba(255, 0, 143.843, 1)" offset="0%"/><stop stop-color="rgba(106.981, 0, 255, 1)" offset="100%"/></linearGradient></defs><path style="transform:translate(0, 100px); opacity:0.8" fill="url(#sw-gradient-2)" d="M0,441L80,432.8C160,425,320,408,480,392C640,376,800,359,960,294C1120,229,1280,114,1440,57.2C1600,0,1760,0,1920,49C2080,98,2240,196,2400,253.2C2560,310,2720,327,2880,351.2C3040,376,3200,408,3360,351.2C3520,294,3680,147,3840,106.2C4000,65,4160,131,4320,147C4480,163,4640,131,4800,155.2C4960,180,5120,261,5280,318.5C5440,376,5600,408,5760,400.2C5920,392,6080,343,6240,343C6400,343,6560,392,6720,416.5C6880,441,7040,441,7200,432.8C7360,425,7520,408,7680,383.8C7840,359,8000,327,8160,277.7C8320,229,8480,163,8640,155.2C8800,147,8960,196,9120,196C9280,196,9440,147,9600,130.7C9760,114,9920,131,10080,147C10240,163,10400,180,10560,228.7C10720,278,10880,359,11040,383.8C11200,408,11360,376,11440,359.3L11520,343L11520,490L11440,490C11360,490,11200,490,11040,490C10880,490,10720,490,10560,490C10400,490,10240,490,10080,490C9920,490,9760,490,9600,490C9440,490,9280,490,9120,490C8960,490,8800,490,8640,490C8480,490,8320,490,8160,490C8000,490,7840,490,7680,490C7520,490,7360,490,7200,490C7040,490,6880,490,6720,490C6560,490,6400,490,6240,490C6080,490,5920,490,5760,490C5600,490,5440,490,5280,490C5120,490,4960,490,4800,490C4640,490,4480,490,4320,490C4160,490,4000,490,3840,490C3680,490,3520,490,3360,490C3200,490,3040,490,2880,490C2720,490,2560,490,2400,490C2240,490,2080,490,1920,490C1760,490,1600,490,1440,490C1280,490,1120,490,960,490C800,490,640,490,480,490C320,490,160,490,80,490L0,490Z"/></svg>