<?xml version="1.0" standalone="no"?>
<svg xmlns:xlink="http://www.w3.org/1999/xlink" id="wave" style="transform:rotate(180deg); transition: 0.3s" viewBox="0 0 1440 410" version="1.1" xmlns="http://www.w3.org/2000/svg"><defs><linearGradient id="sw-gradient-0" x1="0" x2="0" y1="1" y2="0"><stop stop-color="rgba(255, 255, 255, 1)" offset="0%"/><stop stop-color="rgba(212.596, 235.031, 255, 1)" offset="100%"/></linearGradient></defs><path style="transform:translate(0, 0px); opacity:1" fill="url(#sw-gradient-0)" d="M0,41L48,41C96,41,192,41,288,68.3C384,96,480,150,576,170.8C672,191,768,178,864,164C960,150,1056,137,1152,170.8C1248,205,1344,287,1440,293.8C1536,301,1632,232,1728,191.3C1824,150,1920,137,2016,164C2112,191,2208,260,2304,280.2C2400,301,2496,273,2592,252.8C2688,232,2784,219,2880,218.7C2976,219,3072,232,3168,246C3264,260,3360,273,3456,293.8C3552,314,3648,342,3744,355.3C3840,369,3936,369,4032,348.5C4128,328,4224,287,4320,273.3C4416,260,4512,273,4608,266.5C4704,260,4800,232,4896,205C4992,178,5088,150,5184,116.2C5280,82,5376,41,5472,61.5C5568,82,5664,164,5760,184.5C5856,205,5952,164,6048,136.7C6144,109,6240,96,6336,123C6432,150,6528,219,6624,266.5C6720,314,6816,342,6864,355.3L6912,369L6912,410L6864,410C6816,410,6720,410,6624,410C6528,410,6432,410,6336,410C6240,410,6144,410,6048,410C5952,410,5856,410,5760,410C5664,410,5568,410,5472,410C5376,410,5280,410,5184,410C5088,410,4992,410,4896,410C4800,410,4704,410,4608,410C4512,410,4416,410,4320,410C4224,410,4128,410,4032,410C3936,410,3840,410,3744,410C3648,410,3552,410,3456,410C3360,410,3264,410,3168,410C3072,410,2976,410,2880,410C2784,410,2688,410,2592,410C2496,410,2400,410,2304,410C2208,410,2112,410,2016,410C1920,410,1824,410,1728,410C1632,410,1536,410,1440,410C1344,410,1248,410,1152,410C1056,410,960,410,864,410C768,410,672,410,576,410C480,410,384,410,288,410C192,410,96,410,48,410L0,410Z"/><defs><linearGradient id="sw-gradient-1" x1="0" x2="0" y1="1" y2="0"><stop stop-color="rgba(247.386, 218.355, 255, 1)" offset="0%"/><stop stop-color="rgba(255, 255, 255, 1)" offset="100%"/></linearGradient></defs><path style="transform:translate(0, 50px); opacity:0.9" fill="url(#sw-gradient-1)" d="M0,123L48,116.2C96,109,192,96,288,102.5C384,109,480,137,576,129.8C672,123,768,82,864,82C960,82,1056,123,1152,136.7C1248,150,1344,137,1440,150.3C1536,164,1632,205,1728,198.2C1824,191,1920,137,2016,95.7C2112,55,2208,27,2304,75.2C2400,123,2496,246,2592,287C2688,328,2784,287,2880,287C2976,287,3072,328,3168,314.3C3264,301,3360,232,3456,170.8C3552,109,3648,55,3744,27.3C3840,0,3936,0,4032,34.2C4128,68,4224,137,4320,177.7C4416,219,4512,232,4608,218.7C4704,205,4800,164,4896,123C4992,82,5088,41,5184,61.5C5280,82,5376,164,5472,211.8C5568,260,5664,273,5760,239.2C5856,205,5952,123,6048,95.7C6144,68,6240,96,6336,95.7C6432,96,6528,68,6624,47.8C6720,27,6816,14,6864,6.8L6912,0L6912,410L6864,410C6816,410,6720,410,6624,410C6528,410,6432,410,6336,410C6240,410,6144,410,6048,410C5952,410,5856,410,5760,410C5664,410,5568,410,5472,410C5376,410,5280,410,5184,410C5088,410,4992,410,4896,410C4800,410,4704,410,4608,410C4512,410,4416,410,4320,410C4224,410,4128,410,4032,410C3936,410,3840,410,3744,410C3648,410,3552,410,3456,410C3360,410,3264,410,3168,410C3072,410,2976,410,2880,410C2784,410,2688,410,2592,410C2496,410,2400,410,2304,410C2208,410,2112,410,2016,410C1920,410,1824,410,1728,410C1632,410,1536,410,1440,410C1344,410,1248,410,1152,410C1056,410,960,410,864,410C768,410,672,410,576,410C480,410,384,410,288,410C192,410,96,410,48,410L0,410Z"/></svg>